<?xml version="1.0" standalone="no"?>
<!DOCTYPE svg PUBLIC "-//W3C//DTD SVG 20010904//EN"
 "http://www.w3.org/TR/2001/REC-SVG-20010904/DTD/svg10.dtd">
<svg version="1.0" xmlns="http://www.w3.org/2000/svg"
 width="980.000000pt" height="982.000000pt" viewBox="0 0 980.000000 982.000000"
 preserveAspectRatio="xMidYMid meet">
<metadata>
Created by potrace 1.15, written by Peter Selinger 2001-2017
</metadata>
<g transform="translate(0.000000,982.000000) scale(0.100000,-0.100000)"
fill="#000000" stroke="none">
<path d="M4295 9744 c-555 -85 -1182 -291 -1662 -544 -236 -125 -499 -292
-656 -418 -299 -238 -701 -639 -942 -940 -371 -462 -706 -1171 -880 -1857 -59
-232 -85 -393 -92 -567 l-6 -148 -29 0 -28 0 0 -385 0 -385 30 0 30 0 0 -74
c0 -283 137 -838 318 -1291 367 -917 1023 -1729 1837 -2272 399 -266 766 -442
1255 -601 398 -129 621 -173 990 -193 233 -13 955 -6 1090 10 252 31 471 85
860 213 1598 525 2809 1842 3225 3508 75 299 105 482 105 638 l0 72 30 0 30 0
0 375 0 375 -30 0 -30 0 0 88 c0 415 -200 1119 -480 1687 -486 986 -1269 1764
-2265 2250 -324 158 -651 276 -1007 365 -254 63 -416 87 -683 100 -306 15
-898 11 -1010 -6z m1030 -484 c556 -41 969 -152 1483 -400 216 -105 322 -164
496 -278 763 -496 1336 -1200 1687 -2074 130 -323 204 -614 244 -953 38 -326
38 -960 0 -1290 -54 -466 -168 -826 -438 -1377 l-130 -268 -53 0 c-52 0 -53 0
-151 91 -114 107 -210 181 -348 272 -349 227 -826 457 -1417 682 l-257 98 -35
-29 c-307 -256 -449 -357 -631 -449 -209 -106 -375 -160 -544 -176 -160 -16
-693 -6 -781 14 -307 71 -618 243 -965 536 -60 51 -115 95 -121 97 -13 6 -520
-188 -734 -281 -207 -89 -505 -235 -664 -324 -286 -160 -471 -290 -634 -446
l-91 -86 -57 3 -57 3 -103 215 c-211 437 -319 739 -403 1120 -72 327 -96 572
-95 970 1 518 57 896 200 1342 213 664 567 1240 1071 1743 440 439 893 738
1453 958 406 160 854 272 1185 297 136 11 700 4 890 -10z"/>
<path d="M4727 8040 c-566 -71 -1099 -422 -1407 -925 -329 -538 -387 -1134
-174 -1796 218 -678 654 -1252 1144 -1508 252 -132 506 -193 706 -170 173 19
357 80 519 171 502 282 925 843 1139 1507 90 280 121 471 120 756 0 294 -34
468 -141 730 -297 728 -970 1220 -1698 1240 -77 2 -171 0 -208 -5z"/>
</g>
</svg>
